<?xml version="1.0" encoding="UTF-8"?>
<svg xmlns="http://www.w3.org/2000/svg" width="326" height="892" viewBox="0 0 326 892" role="img" aria-labelledby="title description">
  <title id="title">Red Cap Target assembled rig acceptance preview</title>
  <desc id="description">Trimmed source assets assembled on the source canvas. Red dots are proximal pivots; cyan rings are separately authored child attachment points.</desc>
  <style>
    image { image-rendering: auto; }
    line { stroke: #00d8ff; stroke-width: 3; stroke-linecap: round; opacity: 0.9; }
    .attachment { fill: none; stroke: #00d8ff; stroke-width: 3; }
    .pivot { fill: #ff3158; stroke: #ffffff; stroke-width: 1.5; }
  </style>
  <rect width="326" height="892" fill="#20242d"/>
  <g id="assembled-assets">
    <image href="parts/hand-left.png" x="228" y="368" width="98" height="144"><title>hand-left</title></image>
    <image href="parts/forearm-left.png" x="218" y="252" width="108" height="190"><title>forearm-left</title></image>
    <image href="parts/upper-arm-left.png" x="190" y="120" width="136" height="203"><title>upper-arm-left</title></image>
    <image href="parts/briefcase.png" x="0" y="478" width="151" height="201"><title>briefcase</title></image>
    <image href="parts/hand-right.png" x="0" y="369" width="138" height="155"><title>hand-right</title></image>
    <image href="parts/forearm-right.png" x="0" y="253" width="135" height="193"><title>forearm-right</title></image>
    <image href="parts/upper-arm-right.png" x="9" y="121" width="140" height="208"><title>upper-arm-right</title></image>
    <image href="parts/foot-left.png" x="168" y="734" width="158" height="140"><title>foot-left</title></image>
    <image href="parts/shin-left.png" x="149" y="550" width="140" height="255"><title>shin-left</title></image>
    <image href="parts/thigh-left.png" x="146" y="381" width="140" height="240"><title>thigh-left</title></image>
    <image href="parts/foot-right.png" x="49" y="745" width="140" height="147"><title>foot-right</title></image>
    <image href="parts/shin-right.png" x="87" y="520" width="143" height="296"><title>shin-right</title></image>
    <image href="parts/thigh-right.png" x="62" y="381" width="140" height="214"><title>thigh-right</title></image>
    <image href="parts/pelvis.png" x="98" y="400" width="149" height="100"><title>pelvis</title></image>
    <image href="parts/torso.png" x="7" y="117" width="312" height="478"><title>torso</title></image>
    <image href="parts/head.png" x="141" y="55" width="87" height="141"><title>head</title></image>
    <image href="parts/hair.png" x="135" y="65" width="84" height="61"><title>hair</title></image>
    <image href="parts/cap.png" x="133" y="0" width="118" height="77"><title>cap</title></image>
    <image href="parts/sunglasses.png" x="145" y="66" width="94" height="33"><title>sunglasses</title></image>
  </g>
  <g id="rig-bones">
    <line x1="288" y1="322" x2="298" y2="438"><title>forearm-left to hand-left via wrist-left</title></line>
    <line x1="260" y1="190" x2="288" y2="322"><title>upper-arm-left to forearm-left via elbow-left</title></line>
    <line x1="68" y1="439" x2="76" y2="517"><title>hand-right to briefcase via right-grip</title></line>
    <line x1="65" y1="323" x2="68" y2="439"><title>forearm-right to hand-right via wrist-right</title></line>
    <line x1="79" y1="191" x2="65" y2="323"><title>upper-arm-right to forearm-right via elbow-right</title></line>
    <line x1="219" y1="620" x2="238" y2="804"><title>shin-left to foot-left via ankle-left</title></line>
    <line x1="216" y1="451" x2="219" y2="620"><title>thigh-left to shin-left via knee-left</title></line>
    <line x1="160" y1="590" x2="119" y2="815"><title>shin-right to foot-right via ankle-right</title></line>
    <line x1="132" y1="451" x2="160" y2="590"><title>thigh-right to shin-right via knee-right</title></line>
    <line x1="163" y1="427" x2="163" y2="427"><title>pelvis to torso via waist</title></line>
    <line x1="163" y1="427" x2="216" y2="451"><title>pelvis to thigh-left via hip-left</title></line>
    <line x1="163" y1="427" x2="132" y2="451"><title>pelvis to thigh-right via hip-right</title></line>
    <line x1="163" y1="427" x2="163" y2="170"><title>torso to head via neck</title></line>
    <line x1="163" y1="427" x2="260" y2="190"><title>torso to upper-arm-left via shoulder-left</title></line>
    <line x1="163" y1="427" x2="79" y2="191"><title>torso to upper-arm-right via shoulder-right</title></line>
    <line x1="163" y1="170" x2="163" y2="70"><title>head to hair via hair-mount</title></line>
    <line x1="163" y1="170" x2="174" y2="55"><title>head to cap via cap-mount</title></line>
    <line x1="163" y1="170" x2="190.5" y2="81"><title>head to sunglasses via eyewear-mount</title></line>
  </g>
  <g id="child-attachments">
    <circle class="attachment" cx="298" cy="438" r="7"><title>forearm-left.wrist-left</title></circle>
    <circle class="attachment" cx="288" cy="322" r="7"><title>upper-arm-left.elbow-left</title></circle>
    <circle class="attachment" cx="76" cy="517" r="7"><title>hand-right.right-grip</title></circle>
    <circle class="attachment" cx="68" cy="439" r="7"><title>forearm-right.wrist-right</title></circle>
    <circle class="attachment" cx="65" cy="323" r="7"><title>upper-arm-right.elbow-right</title></circle>
    <circle class="attachment" cx="238" cy="804" r="7"><title>shin-left.ankle-left</title></circle>
    <circle class="attachment" cx="219" cy="620" r="7"><title>thigh-left.knee-left</title></circle>
    <circle class="attachment" cx="119" cy="815" r="7"><title>shin-right.ankle-right</title></circle>
    <circle class="attachment" cx="160" cy="590" r="7"><title>thigh-right.knee-right</title></circle>
    <circle class="attachment" cx="163" cy="427" r="7"><title>pelvis.waist</title></circle>
    <circle class="attachment" cx="216" cy="451" r="7"><title>pelvis.hip-left</title></circle>
    <circle class="attachment" cx="132" cy="451" r="7"><title>pelvis.hip-right</title></circle>
    <circle class="attachment" cx="163" cy="170" r="7"><title>torso.neck</title></circle>
    <circle class="attachment" cx="260" cy="190" r="7"><title>torso.shoulder-left</title></circle>
    <circle class="attachment" cx="79" cy="191" r="7"><title>torso.shoulder-right</title></circle>
    <circle class="attachment" cx="163" cy="70" r="7"><title>head.hair-mount</title></circle>
    <circle class="attachment" cx="174" cy="55" r="7"><title>head.cap-mount</title></circle>
    <circle class="attachment" cx="190.5" cy="81" r="7"><title>head.eyewear-mount</title></circle>
  </g>
  <g id="proximal-pivots">
    <circle class="pivot" cx="298" cy="438" r="3.5"><title>hand-left proximal pivot</title></circle>
    <circle class="pivot" cx="288" cy="322" r="3.5"><title>forearm-left proximal pivot</title></circle>
    <circle class="pivot" cx="260" cy="190" r="3.5"><title>upper-arm-left proximal pivot</title></circle>
    <circle class="pivot" cx="76" cy="517" r="3.5"><title>briefcase proximal pivot</title></circle>
    <circle class="pivot" cx="68" cy="439" r="3.5"><title>hand-right proximal pivot</title></circle>
    <circle class="pivot" cx="65" cy="323" r="3.5"><title>forearm-right proximal pivot</title></circle>
    <circle class="pivot" cx="79" cy="191" r="3.5"><title>upper-arm-right proximal pivot</title></circle>
    <circle class="pivot" cx="238" cy="804" r="3.5"><title>foot-left proximal pivot</title></circle>
    <circle class="pivot" cx="219" cy="620" r="3.5"><title>shin-left proximal pivot</title></circle>
    <circle class="pivot" cx="216" cy="451" r="3.5"><title>thigh-left proximal pivot</title></circle>
    <circle class="pivot" cx="119" cy="815" r="3.5"><title>foot-right proximal pivot</title></circle>
    <circle class="pivot" cx="160" cy="590" r="3.5"><title>shin-right proximal pivot</title></circle>
    <circle class="pivot" cx="132" cy="451" r="3.5"><title>thigh-right proximal pivot</title></circle>
    <circle class="pivot" cx="163" cy="427" r="3.5"><title>pelvis proximal pivot</title></circle>
    <circle class="pivot" cx="163" cy="427" r="3.5"><title>torso proximal pivot</title></circle>
    <circle class="pivot" cx="163" cy="170" r="3.5"><title>head proximal pivot</title></circle>
    <circle class="pivot" cx="163" cy="70" r="3.5"><title>hair proximal pivot</title></circle>
    <circle class="pivot" cx="174" cy="55" r="3.5"><title>cap proximal pivot</title></circle>
    <circle class="pivot" cx="190.5" cy="81" r="3.5"><title>sunglasses proximal pivot</title></circle>
  </g>
</svg>
